<svg width="60" height="60" viewBox="0 0 60 60" fill="none" xmlns="http://www.w3.org/2000/svg">
<path d="M15.4933 52.3357L38.1398 31.0214L48.7969 41.6786M15.4933 52.3357H42.1362C46.5505 52.3357 50.129 48.7572 50.129 44.3429V31.0214M15.4933 52.3357C11.079 52.3357 7.50049 48.7572 7.50049 44.3429V17.7C7.50049 13.2857 11.079 9.70716 15.4933 9.70716H32.8112M47.4648 22.5715L47.4648 15.0357M47.4648 15.0357L47.4648 7.5M47.4648 15.0357L39.929 15.0357M47.4648 15.0357L55.0005 15.0357M23.4862 21.6964C23.4862 23.9036 21.6969 25.6929 19.4898 25.6929C17.2826 25.6929 15.4933 23.9036 15.4933 21.6964C15.4933 19.4893 17.2826 17.7 19.4898 17.7C21.6969 17.7 23.4862 19.4893 23.4862 21.6964Z" stroke="#A6A6A6" stroke-width="5" stroke-linecap="round" stroke-linejoin="round"/>
</svg>
