<svg width="28" height="25" viewBox="0 0 28 25" fill="none" xmlns="http://www.w3.org/2000/svg">
<path d="M13.8065 0C13.0582 0 12.4516 0.606582 12.4516 1.35484C12.4516 2.1031 13.0582 2.70968 13.8065 2.70968L26.6452 2.70968C27.3934 2.70968 28 2.1031 28 1.35484C28 0.606583 27.3934 0 26.6452 0H13.8065Z" fill="#545454"/>
<path d="M1.35484 10.8387C0.606582 10.8387 0 11.4453 0 12.1935C0 12.9418 0.606582 13.5484 1.35484 13.5484H26.6452C27.3934 13.5484 28 12.9418 28 12.1935C28 11.4453 27.3934 10.8387 26.6452 10.8387H1.35484Z" fill="#545454"/>
<path d="M8.58064 21.6774C7.83239 21.6774 7.22581 22.284 7.22581 23.0323C7.22581 23.7805 7.83239 24.3871 8.58064 24.3871L26.6452 24.3871C27.3934 24.3871 28 23.7805 28 23.0323C28 22.284 27.3934 21.6774 26.6452 21.6774L8.58064 21.6774Z" fill="#545454"/>
</svg>
