<svg width="24" height="24" viewBox="0 0 24 24" fill="none" xmlns="http://www.w3.org/2000/svg">
<rect width="24" height="24" fill="#CACACA"/>
<g clip-path="url(#clip0_72_28)">
<rect width="1440" height="2084" transform="translate(-830 -275)" fill="#FFFCFC"/>
<path d="M-12.2494 32V29.646H-8.68541V18.866H-7.32141L-11.8974 21.594V18.91L-7.87141 16.49H-5.84741V29.646H-2.50341V32H-12.2494ZM5.1 32.22C3.28133 32.22 1.85867 31.8313 0.832 31.054C-0.18 30.2767 -0.686 29.1987 -0.686 27.82C-0.686 26.7347 -0.356 25.8327 0.304 25.114C0.964 24.3953 1.822 23.97 2.878 23.838V24.3C1.92467 24.0947 1.15467 23.6473 0.568 22.958C-0.00399992 22.2687 -0.29 21.4327 -0.29 20.45C-0.29 19.1447 0.186667 18.1253 1.14 17.392C2.108 16.644 3.428 16.27 5.1 16.27C6.78667 16.27 8.10667 16.644 9.06 17.392C10.028 18.1253 10.512 19.1447 10.512 20.45C10.512 21.4327 10.2333 22.276 9.676 22.98C9.13333 23.684 8.39267 24.1167 7.454 24.278V23.838C8.49533 23.9847 9.33133 24.4173 9.962 25.136C10.5927 25.84 10.908 26.7347 10.908 27.82C10.908 29.1987 10.3947 30.2767 9.368 31.054C8.356 31.8313 6.93333 32.22 5.1 32.22ZM5.1 30.02C6.17067 30.02 6.97 29.822 7.498 29.426C8.026 29.0153 8.29 28.414 8.29 27.622C8.29 26.83 8.026 26.236 7.498 25.84C6.97 25.444 6.17067 25.246 5.1 25.246C4.044 25.246 3.24467 25.444 2.702 25.84C2.174 26.236 1.91 26.83 1.91 27.622C1.91 28.414 2.174 29.0153 2.702 29.426C3.24467 29.822 4.044 30.02 5.1 30.02ZM5.1 23.046C6.00933 23.046 6.69867 22.8407 7.168 22.43C7.652 22.0193 7.894 21.4547 7.894 20.736C7.894 20.032 7.652 19.482 7.168 19.086C6.69867 18.6753 6.00933 18.47 5.1 18.47C4.20533 18.47 3.516 18.6753 3.032 19.086C2.56267 19.482 2.328 20.032 2.328 20.736C2.328 21.4547 2.56267 22.0193 3.032 22.43C3.516 22.8407 4.20533 23.046 5.1 23.046Z" fill="#2E2E2E"/>
<rect x="-830" y="-275" width="1440" height="2084" fill="#1A1A1A" fill-opacity="0.4"/>
<rect x="-402" y="-175" width="584" height="496" rx="10" fill="#FFFCFC"/>
<path d="M17.9999 2.3999C19.9881 2.3999 21.5999 4.01168 21.5999 5.9999V18C21.5999 19.9882 19.9881 21.6 17.9999 21.6H5.9999C4.01168 21.6 2.3999 19.9882 2.3999 18L2.3999 5.9999C2.3999 4.01168 4.01168 2.3999 5.9999 2.3999L17.9999 2.3999Z" stroke="#2E2E2E" stroke-width="2" stroke-linecap="round" stroke-linejoin="round"/>
<path d="M16.8 8.3999L9.64043 15.5999L7.19995 13.1456" stroke="#2E2E2E" stroke-width="2" stroke-linecap="round" stroke-linejoin="round"/>
</g>
<defs>
<clipPath id="clip0_72_28">
<rect width="1440" height="2084" fill="white" transform="translate(-830 -275)"/>
</clipPath>
</defs>
</svg>
