<svg width="29" height="25" viewBox="0 0 29 25" fill="none" xmlns="http://www.w3.org/2000/svg">
<path fill-rule="evenodd" clip-rule="evenodd" d="M5.00449 0C2.57444 0 0.604492 1.97193 0.604492 4.40444C0.604492 6.83694 2.57444 8.80887 5.00449 8.80887C7.43455 8.80887 9.40449 6.83694 9.40449 4.40444C9.40449 1.97193 7.43455 0 5.00449 0ZM3.00449 4.40444C3.00449 3.29875 3.89992 2.40242 5.00449 2.40242C6.10906 2.40242 7.00449 3.29875 7.00449 4.40444C7.00449 5.51012 6.10906 6.40645 5.00449 6.40645C3.89992 6.40645 3.00449 5.51012 3.00449 4.40444Z" fill="#545454"/>
<path d="M14.6045 3.20323C13.9418 3.20323 13.4045 3.74103 13.4045 4.40444C13.4045 5.06785 13.9418 5.60565 14.6045 5.60565L27.4045 5.60565C28.0672 5.60565 28.6045 5.06785 28.6045 4.40444C28.6045 3.74103 28.0672 3.20323 27.4045 3.20323L14.6045 3.20323Z" fill="#545454"/>
<path fill-rule="evenodd" clip-rule="evenodd" d="M24.2045 16.0161C21.7744 16.0161 19.8045 17.9881 19.8045 20.4206C19.8045 22.8531 21.7744 24.825 24.2045 24.825C26.6345 24.825 28.6045 22.8531 28.6045 20.4206C28.6045 17.9881 26.6345 16.0161 24.2045 16.0161ZM22.2045 20.4206C22.2045 19.3149 23.0999 18.4185 24.2045 18.4185C25.3091 18.4185 26.2045 19.3149 26.2045 20.4206C26.2045 21.5262 25.3091 22.4226 24.2045 22.4226C23.0999 22.4226 22.2045 21.5262 22.2045 20.4206Z" fill="#545454"/>
<path d="M1.80449 19.2194C1.14175 19.2194 0.604492 19.7572 0.604492 20.4206C0.604492 21.084 1.14175 21.6218 1.80449 21.6218L14.6045 21.6218C15.2672 21.6218 15.8045 21.084 15.8045 20.4206C15.8045 19.7572 15.2672 19.2194 14.6045 19.2194L1.80449 19.2194Z" fill="#545454"/>
</svg>
