<svg width="22" height="18" viewBox="0 0 22 18" fill="none" xmlns="http://www.w3.org/2000/svg">
<path fill-rule="evenodd" clip-rule="evenodd" d="M21.4685 1.58565C21.792 1.32689 21.8444 0.854922 21.5857 0.531476C21.3269 0.208029 20.855 0.155588 20.5315 0.414346L17.2062 3.0746C15.529 1.56832 13.3897 0.249997 11 0.249997C8.85907 0.249997 6.92327 1.30899 5.35175 2.59571C3.77166 3.88946 2.47964 5.47865 1.61144 6.68801L1.53984 6.78759C1.01718 7.51382 0.58695 8.11163 0.586944 8.99997C0.586937 9.8883 1.01709 10.486 1.53964 11.2121L1.61121 11.3117C2.15751 12.0727 2.86909 12.9804 3.71226 13.8697L0.531506 16.4143C0.20806 16.6731 0.155619 17.1451 0.414376 17.4685C0.673133 17.792 1.1451 17.8444 1.46855 17.5856L21.4685 1.58565ZM11 1.75C12.7777 1.75 14.5024 2.70929 16.0173 4.02571L13.4006 6.11906C12.7506 5.57703 11.9134 5.25 11 5.25C8.92896 5.25 7.25003 6.92893 7.25003 9C7.25003 9.61538 7.39871 10.197 7.66192 10.71L4.88803 12.9291C4.06702 12.0746 3.36802 11.1867 2.82974 10.4369C2.20595 9.56798 2.08694 9.35851 2.08694 8.99998C2.08695 8.64146 2.206 8.43192 2.82995 7.56278C3.65922 6.40765 4.86351 4.93414 6.30203 3.75631C7.74913 2.57146 9.35426 1.75 11 1.75ZM11 6.75C11.4362 6.75 11.8433 6.8738 12.1884 7.08887L8.87436 9.74007C8.79377 9.5085 8.75003 9.25961 8.75003 9C8.75003 7.75736 9.75739 6.75 11 6.75Z" fill="#737373"/>
<path d="M19.3954 5.39076C19.1332 5.07003 18.6608 5.02252 18.34 5.28464C18.0193 5.54676 17.9718 6.01925 18.2339 6.33998C18.5844 6.76885 18.8981 7.18393 19.17 7.5627C19.7941 8.43191 19.9131 8.64147 19.9131 8.99999C19.9131 9.35852 19.7941 9.56806 19.1701 10.4372C18.3408 11.5923 17.1365 13.0659 15.698 14.2437C14.2509 15.4285 12.6458 16.25 11 16.25C9.59522 16.25 8.21821 15.652 6.93756 14.7322C6.60113 14.4905 6.13252 14.5674 5.89088 14.9038C5.64923 15.2402 5.72607 15.7088 6.0625 15.9505C7.48703 16.9737 9.16761 17.75 11 17.75C13.141 17.75 15.0768 16.691 16.6483 15.4043C18.2284 14.1105 19.5204 12.5213 20.3886 11.312L20.4602 11.2124C20.9829 10.4862 21.4131 9.88834 21.4131 8.99999C21.4131 8.11164 20.9829 7.51379 20.4602 6.78751L20.3886 6.68793C20.1009 6.28721 19.7682 5.84693 19.3954 5.39076Z" fill="#737373"/>
<path d="M14.75 9C14.75 8.58578 14.4142 8.25 14 8.25C13.5858 8.25 13.25 8.58578 13.25 9C13.25 10.2426 12.2427 11.25 11 11.25C10.5858 11.25 10.25 11.5858 10.25 12C10.25 12.4142 10.5858 12.75 11 12.75C13.0711 12.75 14.75 11.0711 14.75 9Z" fill="#737373"/>
</svg>
