<svg width="165" height="60" viewBox="0 0 165 60" fill="none" xmlns="http://www.w3.org/2000/svg">
<rect width="165" height="60" rx="30" fill="#F0F0EE"/>
<path d="M54.6216 37V22.4545H57.6969V34.4645H63.9327V37H54.6216ZM78.7694 29.7273C78.7694 31.3134 78.4687 32.6629 77.8674 33.7756C77.2708 34.8883 76.4564 35.7382 75.4242 36.3253C74.3967 36.9077 73.2414 37.1989 71.9583 37.1989C70.6657 37.1989 69.5056 36.9053 68.4782 36.3182C67.4507 35.7311 66.6387 34.8812 66.0421 33.7685C65.4455 32.6558 65.1472 31.3087 65.1472 29.7273C65.1472 28.1411 65.4455 26.7917 66.0421 25.679C66.6387 24.5663 67.4507 23.7187 68.4782 23.1364C69.5056 22.5492 70.6657 22.2557 71.9583 22.2557C73.2414 22.2557 74.3967 22.5492 75.4242 23.1364C76.4564 23.7187 77.2708 24.5663 77.8674 25.679C78.4687 26.7917 78.7694 28.1411 78.7694 29.7273ZM75.6515 29.7273C75.6515 28.6998 75.4976 27.8333 75.1898 27.1278C74.8868 26.4223 74.4583 25.8873 73.9043 25.5227C73.3503 25.1581 72.7016 24.9759 71.9583 24.9759C71.2149 24.9759 70.5662 25.1581 70.0123 25.5227C69.4583 25.8873 69.0274 26.4223 68.7196 27.1278C68.4166 27.8333 68.2651 28.6998 68.2651 29.7273C68.2651 30.7547 68.4166 31.6212 68.7196 32.3267C69.0274 33.0322 69.4583 33.5672 70.0123 33.9318C70.5662 34.2964 71.2149 34.4787 71.9583 34.4787C72.7016 34.4787 73.3503 34.2964 73.9043 33.9318C74.4583 33.5672 74.8868 33.0322 75.1898 32.3267C75.4976 31.6212 75.6515 30.7547 75.6515 29.7273ZM90.6923 27.1562C90.5929 26.8106 90.4532 26.5052 90.2733 26.2401C90.0933 25.9702 89.8732 25.7429 89.6127 25.5582C89.3571 25.3688 89.0635 25.2244 88.7321 25.125C88.4054 25.0256 88.0431 24.9759 87.6454 24.9759C86.902 24.9759 86.2486 25.1605 85.6852 25.5298C85.1265 25.8991 84.6909 26.4366 84.3784 27.142C84.0659 27.8428 83.9096 28.6998 83.9096 29.7131C83.9096 30.7263 84.0635 31.5881 84.3713 32.2983C84.679 33.0085 85.1146 33.5507 85.6781 33.9247C86.2415 34.294 86.9068 34.4787 87.6738 34.4787C88.3699 34.4787 88.9641 34.3556 89.4565 34.1094C89.9537 33.8584 90.3324 33.5057 90.5929 33.0511C90.858 32.5966 90.9906 32.0592 90.9906 31.4389L91.6156 31.5312H87.8656V29.2159H93.9522V31.0483C93.9522 32.3267 93.6824 33.4252 93.1426 34.3438C92.6028 35.2576 91.8594 35.9631 90.9125 36.4602C89.9655 36.9527 88.8812 37.1989 87.6596 37.1989C86.296 37.1989 85.0981 36.8982 84.0659 36.2969C83.0337 35.6908 82.2288 34.8314 81.6511 33.7188C81.0782 32.6013 80.7917 31.2756 80.7917 29.7415C80.7917 28.5625 80.9622 27.5114 81.3031 26.5881C81.6487 25.66 82.1317 24.8741 82.752 24.2301C83.3722 23.5862 84.0943 23.0961 84.9181 22.7599C85.742 22.4238 86.6345 22.2557 87.5957 22.2557C88.4196 22.2557 89.1866 22.3764 89.8968 22.6179C90.6071 22.8546 91.2368 23.1908 91.786 23.6264C92.34 24.062 92.7922 24.5805 93.1426 25.1818C93.493 25.7784 93.7179 26.4366 93.8173 27.1562H90.6923ZM109.629 29.7273C109.629 31.3134 109.328 32.6629 108.727 33.7756C108.13 34.8883 107.316 35.7382 106.284 36.3253C105.256 36.9077 104.101 37.1989 102.818 37.1989C101.525 37.1989 100.365 36.9053 99.3375 36.3182C98.3101 35.7311 97.498 34.8812 96.9015 33.7685C96.3049 32.6558 96.0066 31.3087 96.0066 29.7273C96.0066 28.1411 96.3049 26.7917 96.9015 25.679C97.498 24.5663 98.3101 23.7187 99.3375 23.1364C100.365 22.5492 101.525 22.2557 102.818 22.2557C104.101 22.2557 105.256 22.5492 106.284 23.1364C107.316 23.7187 108.13 24.5663 108.727 25.679C109.328 26.7917 109.629 28.1411 109.629 29.7273ZM106.511 29.7273C106.511 28.6998 106.357 27.8333 106.049 27.1278C105.746 26.4223 105.318 25.8873 104.764 25.5227C104.21 25.1581 103.561 24.9759 102.818 24.9759C102.074 24.9759 101.426 25.1581 100.872 25.5227C100.318 25.8873 99.8868 26.4223 99.579 27.1278C99.276 27.8333 99.1245 28.6998 99.1245 29.7273C99.1245 30.7547 99.276 31.6212 99.579 32.3267C99.8868 33.0322 100.318 33.5672 100.872 33.9318C101.426 34.2964 102.074 34.4787 102.818 34.4787C103.561 34.4787 104.21 34.2964 104.764 33.9318C105.318 33.5672 105.746 33.0322 106.049 32.3267C106.357 31.6212 106.511 30.7547 106.511 29.7273Z" fill="#545454"/>
</svg>
