<svg width="165" height="50" viewBox="0 0 165 50" fill="none" xmlns="http://www.w3.org/2000/svg">
<rect width="165" height="50" rx="25" fill="#F0F0EE"/>
<path d="M54.6216 32V17.4545H57.6969V29.4645H63.9327V32H54.6216ZM78.7694 24.7273C78.7694 26.3134 78.4687 27.6629 77.8674 28.7756C77.2708 29.8883 76.4564 30.7382 75.4242 31.3253C74.3967 31.9077 73.2414 32.1989 71.9583 32.1989C70.6657 32.1989 69.5056 31.9053 68.4782 31.3182C67.4507 30.7311 66.6387 29.8812 66.0421 28.7685C65.4455 27.6558 65.1472 26.3087 65.1472 24.7273C65.1472 23.1411 65.4455 21.7917 66.0421 20.679C66.6387 19.5663 67.4507 18.7187 68.4782 18.1364C69.5056 17.5492 70.6657 17.2557 71.9583 17.2557C73.2414 17.2557 74.3967 17.5492 75.4242 18.1364C76.4564 18.7187 77.2708 19.5663 77.8674 20.679C78.4687 21.7917 78.7694 23.1411 78.7694 24.7273ZM75.6515 24.7273C75.6515 23.6998 75.4976 22.8333 75.1898 22.1278C74.8868 21.4223 74.4583 20.8873 73.9043 20.5227C73.3503 20.1581 72.7016 19.9759 71.9583 19.9759C71.2149 19.9759 70.5662 20.1581 70.0123 20.5227C69.4583 20.8873 69.0274 21.4223 68.7196 22.1278C68.4166 22.8333 68.2651 23.6998 68.2651 24.7273C68.2651 25.7547 68.4166 26.6212 68.7196 27.3267C69.0274 28.0322 69.4583 28.5672 70.0123 28.9318C70.5662 29.2964 71.2149 29.4787 71.9583 29.4787C72.7016 29.4787 73.3503 29.2964 73.9043 28.9318C74.4583 28.5672 74.8868 28.0322 75.1898 27.3267C75.4976 26.6212 75.6515 25.7547 75.6515 24.7273ZM90.6923 22.1562C90.5929 21.8106 90.4532 21.5052 90.2733 21.2401C90.0933 20.9702 89.8732 20.7429 89.6127 20.5582C89.3571 20.3688 89.0635 20.2244 88.7321 20.125C88.4054 20.0256 88.0431 19.9759 87.6454 19.9759C86.902 19.9759 86.2486 20.1605 85.6852 20.5298C85.1265 20.8991 84.6909 21.4366 84.3784 22.142C84.0659 22.8428 83.9096 23.6998 83.9096 24.7131C83.9096 25.7263 84.0635 26.5881 84.3713 27.2983C84.679 28.0085 85.1146 28.5507 85.6781 28.9247C86.2415 29.294 86.9068 29.4787 87.6738 29.4787C88.3699 29.4787 88.9641 29.3556 89.4565 29.1094C89.9537 28.8584 90.3324 28.5057 90.5929 28.0511C90.858 27.5966 90.9906 27.0592 90.9906 26.4389L91.6156 26.5312H87.8656V24.2159H93.9522V26.0483C93.9522 27.3267 93.6824 28.4252 93.1426 29.3438C92.6028 30.2576 91.8594 30.9631 90.9125 31.4602C89.9655 31.9527 88.8812 32.1989 87.6596 32.1989C86.296 32.1989 85.0981 31.8982 84.0659 31.2969C83.0337 30.6908 82.2288 29.8314 81.6511 28.7188C81.0782 27.6013 80.7917 26.2756 80.7917 24.7415C80.7917 23.5625 80.9622 22.5114 81.3031 21.5881C81.6487 20.66 82.1317 19.8741 82.752 19.2301C83.3722 18.5862 84.0943 18.0961 84.9181 17.7599C85.742 17.4238 86.6345 17.2557 87.5957 17.2557C88.4196 17.2557 89.1866 17.3764 89.8968 17.6179C90.6071 17.8546 91.2368 18.1908 91.786 18.6264C92.34 19.062 92.7922 19.5805 93.1426 20.1818C93.493 20.7784 93.7179 21.4366 93.8173 22.1562H90.6923ZM109.629 24.7273C109.629 26.3134 109.328 27.6629 108.727 28.7756C108.13 29.8883 107.316 30.7382 106.284 31.3253C105.256 31.9077 104.101 32.1989 102.818 32.1989C101.525 32.1989 100.365 31.9053 99.3375 31.3182C98.3101 30.7311 97.498 29.8812 96.9015 28.7685C96.3049 27.6558 96.0066 26.3087 96.0066 24.7273C96.0066 23.1411 96.3049 21.7917 96.9015 20.679C97.498 19.5663 98.3101 18.7187 99.3375 18.1364C100.365 17.5492 101.525 17.2557 102.818 17.2557C104.101 17.2557 105.256 17.5492 106.284 18.1364C107.316 18.7187 108.13 19.5663 108.727 20.679C109.328 21.7917 109.629 23.1411 109.629 24.7273ZM106.511 24.7273C106.511 23.6998 106.357 22.8333 106.049 22.1278C105.746 21.4223 105.318 20.8873 104.764 20.5227C104.21 20.1581 103.561 19.9759 102.818 19.9759C102.074 19.9759 101.426 20.1581 100.872 20.5227C100.318 20.8873 99.8868 21.4223 99.579 22.1278C99.276 22.8333 99.1245 23.6998 99.1245 24.7273C99.1245 25.7547 99.276 26.6212 99.579 27.3267C99.8868 28.0322 100.318 28.5672 100.872 28.9318C101.426 29.2964 102.074 29.4787 102.818 29.4787C103.561 29.4787 104.21 29.2964 104.764 28.9318C105.318 28.5672 105.746 28.0322 106.049 27.3267C106.357 26.6212 106.511 25.7547 106.511 24.7273Z" fill="#545454"/>
</svg>
