<svg width="20" height="20" viewBox="0 0 20 20" fill="none" xmlns="http://www.w3.org/2000/svg">
<path fill-rule="evenodd" clip-rule="evenodd" d="M18.29 5.00048L12.73 0.890481C11.1036 -0.296827 8.89636 -0.296827 7.27 0.890481L1.72 5.00048C0.645442 5.77462 0.00610336 7.01612 0 8.34048V15.7705C0.0600245 18.1637 2.04665 20.0564 4.44 20.0005H15.56C17.9534 20.0564 19.94 18.1637 20 15.7705V8.33048C19.9914 7.01185 19.3567 5.77576 18.29 5.00048ZM18.5 15.7705C18.4404 17.3354 17.1251 18.5568 15.56 18.5005H4.44C2.87698 18.5512 1.56502 17.333 1.5 15.7705V8.34048C1.50534 7.4904 1.91817 6.69448 2.61 6.20048L8.16 2.10048C9.25609 1.30006 10.7439 1.30006 11.84 2.10048L17.39 6.21048C18.0812 6.6959 18.4948 7.48583 18.5 8.33048V15.7705ZM5.5 13.7505H14.5C14.9142 13.7505 15.25 14.0863 15.25 14.5005C15.25 14.9147 14.9142 15.2505 14.5 15.2505H5.5C5.08579 15.2505 4.75 14.9147 4.75 14.5005C4.75 14.0863 5.08579 13.7505 5.5 13.7505Z" fill="#737373"/>
</svg>
