<svg width="22" height="28" viewBox="0 0 22 28" fill="none" xmlns="http://www.w3.org/2000/svg">
<path fill-rule="evenodd" clip-rule="evenodd" d="M11.0003 8C8.58408 8 6.62532 9.95876 6.62532 12.375C6.62532 14.7912 8.58408 16.75 11.0003 16.75C13.4166 16.75 15.3753 14.7912 15.3753 12.375C15.3753 9.95876 13.4166 8 11.0003 8ZM8.37532 12.375C8.37532 10.9253 9.55058 9.75 11.0003 9.75C12.4501 9.75 13.6253 10.9253 13.6253 12.375C13.6253 13.8247 12.4501 15 11.0003 15C9.55058 15 8.37532 13.8247 8.37532 12.375Z" fill="#545454"/>
<path fill-rule="evenodd" clip-rule="evenodd" d="M11.0003 1C5.3031 1 0.791992 5.9499 0.791992 11.9185C0.791992 13.8327 1.74295 16.0867 2.9394 18.2019C4.15523 20.3514 5.70702 22.4973 7.06753 24.2322L7.11291 24.2901C7.77698 25.137 8.3427 25.8585 8.89127 26.3568C9.48977 26.9004 10.1498 27.2564 11.0003 27.2564C11.8509 27.2564 12.5109 26.9004 13.1094 26.3568C13.658 25.8585 14.2237 25.137 14.8877 24.29L14.9331 24.2322C16.2936 22.4973 17.8454 20.3514 19.0612 18.2019C20.2577 16.0867 21.2087 13.8327 21.2087 11.9185C21.2087 5.9499 16.6976 1 11.0003 1ZM2.54199 11.9185C2.54199 6.79333 6.38824 2.75 11.0003 2.75C15.6124 2.75 19.4587 6.79333 19.4587 11.9185C19.4587 13.3494 18.7124 15.2641 17.538 17.3404C16.383 19.3824 14.8902 21.4509 13.556 23.1523C12.8339 24.0731 12.3585 24.6747 11.9327 25.0614C11.5444 25.4142 11.2852 25.5064 11.0003 25.5064C10.7155 25.5064 10.4562 25.4142 10.0679 25.0614C9.64218 24.6747 9.16673 24.0731 8.4446 23.1523C7.1104 21.4509 5.61765 19.3824 4.46262 17.3404C3.28822 15.2641 2.54199 13.3494 2.54199 11.9185Z" fill="#545454"/>
<path fill-rule="evenodd" clip-rule="evenodd" d="M11.0003 8C8.58408 8 6.62532 9.95876 6.62532 12.375C6.62532 14.7912 8.58408 16.75 11.0003 16.75C13.4166 16.75 15.3753 14.7912 15.3753 12.375C15.3753 9.95876 13.4166 8 11.0003 8ZM8.37532 12.375C8.37532 10.9253 9.55058 9.75 11.0003 9.75C12.4501 9.75 13.6253 10.9253 13.6253 12.375C13.6253 13.8247 12.4501 15 11.0003 15C9.55058 15 8.37532 13.8247 8.37532 12.375Z" stroke="#545454" stroke-width="0.4"/>
<path fill-rule="evenodd" clip-rule="evenodd" d="M11.0003 1C5.3031 1 0.791992 5.9499 0.791992 11.9185C0.791992 13.8327 1.74295 16.0867 2.9394 18.2019C4.15523 20.3514 5.70702 22.4973 7.06753 24.2322L7.11291 24.2901C7.77698 25.137 8.3427 25.8585 8.89127 26.3568C9.48977 26.9004 10.1498 27.2564 11.0003 27.2564C11.8509 27.2564 12.5109 26.9004 13.1094 26.3568C13.658 25.8585 14.2237 25.137 14.8877 24.29L14.9331 24.2322C16.2936 22.4973 17.8454 20.3514 19.0612 18.2019C20.2577 16.0867 21.2087 13.8327 21.2087 11.9185C21.2087 5.9499 16.6976 1 11.0003 1ZM2.54199 11.9185C2.54199 6.79333 6.38824 2.75 11.0003 2.75C15.6124 2.75 19.4587 6.79333 19.4587 11.9185C19.4587 13.3494 18.7124 15.2641 17.538 17.3404C16.383 19.3824 14.8902 21.4509 13.556 23.1523C12.8339 24.0731 12.3585 24.6747 11.9327 25.0614C11.5444 25.4142 11.2852 25.5064 11.0003 25.5064C10.7155 25.5064 10.4562 25.4142 10.0679 25.0614C9.64218 24.6747 9.16673 24.0731 8.4446 23.1523C7.1104 21.4509 5.61765 19.3824 4.46262 17.3404C3.28822 15.2641 2.54199 13.3494 2.54199 11.9185Z" stroke="#545454" stroke-width="0.4"/>
</svg>
