<svg width="16" height="21" viewBox="0 0 16 21" fill="none" xmlns="http://www.w3.org/2000/svg">
<path d="M9.46265 11.902C9.46265 10.9852 8.71944 10.242 7.80265 10.242C6.88585 10.242 6.14265 10.9852 6.14265 11.902C6.14127 12.2907 6.27969 12.6669 6.53265 12.962C6.78752 13.2276 6.87588 13.6118 6.76265 13.962L6.55265 14.582C6.47143 14.8608 6.52512 15.1616 6.69778 15.3951C6.87045 15.6286 7.14227 15.768 7.43265 15.772H8.17265C8.47264 15.7719 8.75416 15.6271 8.92872 15.3832C9.10327 15.1392 9.14942 14.826 9.05265 14.542L8.80265 13.922C8.68942 13.5718 8.77777 13.1876 9.03265 12.922C9.2913 12.6431 9.44352 12.282 9.46265 11.902Z" fill="#737373"/>
<path fill-rule="evenodd" clip-rule="evenodd" d="M12.5526 6.12202V3.00202C12.5532 2.18694 12.2221 1.40672 11.6354 0.840841C11.0488 0.27496 10.2572 -0.0278667 9.44265 0.0020198H6.16265C5.34812 -0.0278667 4.55648 0.27496 3.96985 0.840841C3.38322 1.40672 3.0521 2.18694 3.05265 3.00202V6.12202C0.981163 6.85136 -0.278635 8.95102 0.0526476 11.122L1.00265 16.892C1.47121 19.1904 3.51752 20.8241 5.86265 20.772H9.74265C12.1045 20.8313 14.1655 19.18 14.6226 16.862L15.5726 11.092C15.886 8.92593 14.6195 6.84179 12.5526 6.12202ZM4.55264 3.00202C4.5905 2.14965 5.31011 1.48815 6.16264 1.52202H9.44264C10.2952 1.48815 11.0148 2.14965 11.0526 3.00202V5.77202H4.55264V3.00202ZM12.8026 16.562L13.8026 10.772C13.9019 10.023 13.6638 9.26847 13.1526 8.71202C12.531 8.00708 11.6324 7.60892 10.6926 7.62202H4.91265C3.97604 7.60387 3.07796 7.99449 2.45265 8.69202C1.95367 9.26184 1.73381 10.024 1.85265 10.772L2.80265 16.562C3.1127 17.9884 4.40434 18.9845 5.86265 18.922H9.74265C11.2009 18.9845 12.4926 17.9884 12.8026 16.562Z" fill="#737373"/>
</svg>
