<svg width="16" height="20" viewBox="0 0 16 20" fill="none" xmlns="http://www.w3.org/2000/svg">
<path fill-rule="evenodd" clip-rule="evenodd" d="M15.5801 14.71L15.8201 15.85C16.0475 16.8356 15.823 17.8713 15.2077 18.6742C14.5925 19.4771 13.6509 19.9633 12.6401 20H3.36009C2.34927 19.9633 1.40766 19.4771 0.792441 18.6742C0.17722 17.8713 -0.0473393 16.8356 0.180094 15.85L0.420094 14.71C0.69613 13.1668 2.02272 12.0327 3.59009 12H12.4101C13.9775 12.0327 15.3041 13.1668 15.5801 14.71ZM12.6401 18.49C13.1479 18.4841 13.6258 18.2489 13.9401 17.85V17.86C14.3258 17.3762 14.4761 16.7458 14.3501 16.14L14.1101 15C13.9769 14.1552 13.2647 13.5226 12.4101 13.49H3.5901C2.73546 13.5226 2.02326 14.1552 1.8901 15L1.6501 16.14C1.52725 16.7426 1.67736 17.3687 2.0601 17.85C2.37443 18.2489 2.85231 18.4841 3.3601 18.49H12.6401Z" fill="#737373"/>
<path fill-rule="evenodd" clip-rule="evenodd" d="M8.50008 10H7.50008C5.29094 10 3.50008 8.20915 3.50008 6.00001V3.36001C3.49741 2.46807 3.85056 1.61189 4.48126 0.981192C5.11196 0.350491 5.96814 -0.00265152 6.86008 1.49917e-05H9.14008C10.032 -0.00265152 10.8882 0.350491 11.5189 0.981192C12.1496 1.61189 12.5027 2.46807 12.5001 3.36001V6.00001C12.5001 8.20915 10.7092 10 8.50008 10ZM6.86008 1.50002C5.83283 1.50002 5.00008 2.33277 5.00008 3.36001V6.00001C5.00008 7.38073 6.11937 8.50001 7.50008 8.50001H8.50008C9.88079 8.50001 11.0001 7.38073 11.0001 6.00001V3.36001C11.0001 2.86671 10.8041 2.39361 10.4553 2.0448C10.1065 1.69598 9.63338 1.50002 9.14008 1.50002H6.86008Z" fill="#737373"/>
</svg>
