<svg width="25" height="26" viewBox="0 0 25 26" fill="none" xmlns="http://www.w3.org/2000/svg">
<path d="M9.87414 6.85582C10.3105 6.7867 10.6083 6.37691 10.5391 5.94052C10.47 5.50413 10.0602 5.2064 9.62385 5.27551C6.99943 5.69118 4.94115 7.74947 4.52548 10.3739C4.45636 10.8103 4.7541 11.2201 5.19048 11.2892C5.62687 11.3583 6.03667 11.0606 6.10578 10.6242C6.41302 8.68439 7.93436 7.16305 9.87414 6.85582Z" fill="#6E6E6E"/>
<path fill-rule="evenodd" clip-rule="evenodd" d="M10.65 1C4.90625 1 0.25 5.65625 0.25 11.4C0.25 17.1438 4.90625 21.8 10.65 21.8C16.3938 21.8 21.05 17.1438 21.05 11.4C21.05 5.65625 16.3938 1 10.65 1ZM1.85 11.4C1.85 6.5399 5.7899 2.6 10.65 2.6C15.5101 2.6 19.45 6.5399 19.45 11.4C19.45 16.2601 15.5101 20.2 10.65 20.2C5.7899 20.2 1.85 16.2601 1.85 11.4Z" fill="#6E6E6E"/>
<path d="M19.7491 19.3678C19.4367 19.0554 18.9302 19.0554 18.6178 19.3678C18.3053 19.6802 18.3053 20.1867 18.6177 20.4991L22.8843 24.7658C23.1967 25.0782 23.7033 25.0782 24.0157 24.7658C24.3281 24.4534 24.3281 23.9468 24.0157 23.6344L19.7491 19.3678Z" fill="#6E6E6E"/>
<path d="M9.87414 6.85582C10.3105 6.7867 10.6083 6.37691 10.5391 5.94052C10.47 5.50413 10.0602 5.2064 9.62385 5.27551C6.99943 5.69118 4.94115 7.74947 4.52548 10.3739C4.45636 10.8103 4.7541 11.2201 5.19048 11.2892C5.62687 11.3583 6.03667 11.0606 6.10578 10.6242C6.41302 8.68439 7.93436 7.16305 9.87414 6.85582Z" stroke="#6E6E6E" stroke-width="0.5" stroke-linecap="round"/>
<path fill-rule="evenodd" clip-rule="evenodd" d="M10.65 1C4.90625 1 0.25 5.65625 0.25 11.4C0.25 17.1438 4.90625 21.8 10.65 21.8C16.3938 21.8 21.05 17.1438 21.05 11.4C21.05 5.65625 16.3938 1 10.65 1ZM1.85 11.4C1.85 6.5399 5.7899 2.6 10.65 2.6C15.5101 2.6 19.45 6.5399 19.45 11.4C19.45 16.2601 15.5101 20.2 10.65 20.2C5.7899 20.2 1.85 16.2601 1.85 11.4Z" stroke="#6E6E6E" stroke-width="0.5" stroke-linecap="round"/>
<path d="M19.7491 19.3678C19.4367 19.0554 18.9302 19.0554 18.6178 19.3678C18.3053 19.6802 18.3053 20.1867 18.6177 20.4991L22.8843 24.7658C23.1967 25.0782 23.7033 25.0782 24.0157 24.7658C24.3281 24.4534 24.3281 23.9468 24.0157 23.6344L19.7491 19.3678Z" stroke="#6E6E6E" stroke-width="0.5" stroke-linecap="round"/>
</svg>
