<svg width="22" height="18" viewBox="0 0 22 18" fill="none" xmlns="http://www.w3.org/2000/svg">
<path fill-rule="evenodd" clip-rule="evenodd" d="M11 5C8.92894 5 7.25001 6.67893 7.25001 8.75C7.25001 10.8211 8.92894 12.5 11 12.5C13.0711 12.5 14.75 10.8211 14.75 8.75C14.75 6.67893 13.0711 5 11 5ZM8.75001 8.75C8.75001 7.50736 9.75737 6.5 11 6.5C12.2426 6.5 13.25 7.50736 13.25 8.75C13.25 9.99264 12.2426 11 11 11C9.75737 11 8.75001 9.99264 8.75001 8.75Z" fill="#737373"/>
<path fill-rule="evenodd" clip-rule="evenodd" d="M11 0C8.85905 0 6.92325 1.05899 5.35173 2.34572C3.77164 3.63946 2.47962 5.22865 1.61142 6.43801L1.53981 6.53759C1.01715 7.26384 0.586914 7.86166 0.586914 8.75C0.586914 9.63834 1.01715 10.2362 1.53981 10.9624L1.61142 11.062C2.47962 12.2714 3.77164 13.8605 5.35173 15.1543C6.92325 16.441 8.85905 17.5 11 17.5C13.141 17.5 15.0768 16.441 16.6483 15.1543C18.2284 13.8605 19.5204 12.2714 20.3886 11.062L20.4602 10.9624C20.9829 10.2362 21.4131 9.63835 21.4131 8.75C21.4131 7.86166 20.9829 7.26384 20.4602 6.53759L20.3886 6.43801C19.5204 5.22865 18.2284 3.63946 16.6483 2.34572C15.0768 1.05899 13.141 0 11 0ZM2.82993 7.31278C3.6592 6.15765 4.86348 4.68414 6.302 3.50631C7.7491 2.32146 9.35423 1.5 11 1.5C12.6458 1.5 14.2509 2.32146 15.698 3.50631C17.1365 4.68414 18.3408 6.15765 19.1701 7.31278C19.794 8.18194 19.9131 8.39148 19.9131 8.75C19.9131 9.10852 19.794 9.31806 19.1701 10.1872C18.3408 11.3423 17.1365 12.8159 15.698 13.9937C14.2509 15.1785 12.6458 16 11 16C9.35423 16 7.7491 15.1785 6.302 13.9937C4.86349 12.8159 3.6592 11.3423 2.82993 10.1872C2.20597 9.31806 2.08691 9.10852 2.08691 8.75C2.08691 8.39148 2.20597 8.18194 2.82993 7.31278Z" fill="#737373"/>
</svg>
