<svg width="45" height="29" viewBox="0 0 45 29" fill="none" xmlns="http://www.w3.org/2000/svg">
<path d="M2 6.39978H43" stroke="white" stroke-width="2.5" stroke-linecap="round"/>
<path d="M2 22.8564H43" stroke="white" stroke-width="2.5" stroke-linecap="round"/>
<path d="M17.8155 5.3099C17.8155 7.44902 15.8827 9.36981 13.2576 9.36981C10.6325 9.36981 8.69971 7.44902 8.69971 5.3099C8.69971 3.17079 10.6325 1.25 13.2576 1.25C15.8827 1.25 17.8155 3.17079 17.8155 5.3099Z" fill="#0D0D0D" stroke="white" stroke-width="2.5"/>
<path d="M33.9307 22.7409C33.9307 24.88 31.9979 26.8008 29.3728 26.8008C26.7477 26.8008 24.8149 24.88 24.8149 22.7409C24.8149 20.6018 26.7477 18.681 29.3728 18.681C31.9979 18.681 33.9307 20.6018 33.9307 22.7409Z" fill="#0D0D0D" stroke="white" stroke-width="2.5"/>
</svg>
